<svg width="889" height="379" viewBox="0 0 889 379" fill="none" xmlns="http://www.w3.org/2000/svg">
<g clip-path="url(#clip0_1948_62613)">
<path d="M166.569 205.711L178.724 241.267C185.301 260.495 191.172 275.869 191.938 275.869C191.95 275.868 191.962 275.863 191.971 275.855C192.812 275.115 216.604 206.294 216.604 206.294H262.715L207.084 367.753H175.035C175.035 367.753 140.827 269.34 140.967 268.967L105.259 366.514H73.5322L18.6028 205.711L64.4895 205.741C64.4895 205.741 89.6255 276.71 89.9606 276.71L89.9634 276.707L115.045 205.708L166.569 205.711ZM2.93714 194.528L7.98566 209.309L62.9151 370.112L65.5017 377.686H113.109L115.798 370.341L140.592 302.611C142.728 308.803 145.037 315.477 147.346 322.144C153.035 338.568 158.732 354.988 164.438 371.406L167.051 378.925H215.094L217.693 371.381L273.324 209.923L278.423 195.122H208.604L205.999 202.657C201.219 216.482 196.408 230.296 191.565 244.099C190.816 241.955 190.074 239.81 189.34 237.661L177.186 202.107L174.598 194.537H107.103L104.465 202.002L89.8106 243.486C84.8795 229.671 79.9651 215.85 75.0674 202.023L72.4289 194.574L64.4979 194.569L18.6112 194.539L2.93714 194.528ZM876.724 205.086L876.621 247.406C876.621 247.406 830.856 247.255 807.59 247.255C799.85 247.255 794.597 247.275 794.348 247.318C790.343 248.045 787.787 256.539 788.924 260.265C789.482 262.151 793.681 268.308 798.221 273.965C802.748 279.624 810.195 288.883 814.735 294.534C826.396 309.031 827.996 311.892 829.077 320.217C830.829 333.739 824.411 348.37 812.494 358.02C800.548 367.697 801.074 367.766 712.417 367.766H708.524C654.602 367.75 626.086 367.306 621.935 366.386C614.56 364.724 602.808 355.172 571.757 325.497C560.587 314.833 550.291 305.497 549.763 305.494C549.748 305.494 549.743 305.504 549.743 305.519L549.376 367.771L499.047 367.55L498.736 206.983H610.981C644.809 208.2 667.704 241.77 663.147 263.178C662.115 268.036 659.478 275.077 657.287 278.818C652.785 286.499 641.331 296.358 632.035 300.591C628.601 302.137 625.797 303.938 625.797 304.58C625.797 306.968 637.099 318.054 641.331 319.815C644.948 321.321 655.477 321.657 701.912 321.657L716.783 321.659C763.459 321.659 761.109 321.324 764.715 313.642C767.24 308.295 765.321 305.097 747.557 285.168C725.054 262.865 727.41 252.182 727.257 244.292C726.936 234.836 734.41 205.095 773.259 205.095L876.724 205.086ZM575.203 279.265C596.751 279.265 601.127 278.933 605.711 276.948C621.19 270.244 622.018 250.445 607.171 241.658C603.918 239.729 599.739 239.412 576.382 239.285L549.353 239.143C549.577 239.351 549.268 277.644 549.268 277.644C549.268 277.644 556.038 279.265 575.203 279.265ZM887.968 193.914H773.259C750.781 193.914 737.486 202.749 730.295 210.165C718.588 222.22 715.838 237.401 716.048 244.558C716.059 245.155 716.054 245.766 716.045 246.405C715.944 258.036 717.66 271.203 739.402 292.832C743.695 297.651 750.883 305.733 753.606 309.749C747.664 310.476 732.604 310.476 716.781 310.476H710.064L701.913 310.474C674.008 310.474 650.476 310.393 645.656 309.446C644.98 309.01 644.036 308.253 642.995 307.354C652.637 301.443 662.385 292.273 666.975 284.436C669.759 279.67 672.832 271.529 674.122 265.49C676.983 252.049 672.266 235.835 661.504 222.104C648.947 206.085 630.68 196.501 611.389 195.809L611.186 195.8H487.499L487.523 206.997L487.834 367.563L487.857 378.664L499.001 378.713L549.329 378.933L560.525 378.981L560.594 367.827L560.81 330.534C561.836 331.505 562.899 332.516 563.993 333.556C597.961 366.01 609.356 375.003 619.458 377.278C622.233 377.893 626.823 378.915 708.515 378.937H712.409C756.639 378.937 778.838 378.937 792.042 377.668C807.168 376.211 812.034 372.794 819.326 366.877L819.57 366.68C834.549 354.548 842.453 336.195 840.2 318.781C838.729 307.456 835.721 302.751 823.486 287.545L819.849 283.02C815.557 277.681 811.268 272.34 806.982 266.996C804.2 263.527 802.009 260.448 800.695 258.43C802.425 258.425 804.677 258.423 807.59 258.423C830.575 258.423 876.129 258.572 876.586 258.575L887.813 258.61L887.841 247.427L887.947 205.104L887.968 193.914ZM560.555 267.685L560.607 258.527C560.621 255.734 560.635 252.936 560.636 250.372L576.322 250.454C585.336 250.502 598.899 250.577 601.543 251.324C604.916 253.365 606.8 256.521 606.596 259.788C606.484 261.554 605.64 264.799 601.237 266.701C598.784 267.764 594.874 268.093 575.206 268.093C568.964 268.093 564.151 267.913 560.555 267.685ZM396.759 204.426L453.246 366.306L407.218 366.514L399.577 342.202L317.281 341.544L310.019 365.886L264.455 365.41L320.225 204.495L396.759 204.426ZM359.746 228.16C359.629 228.625 352.534 248.017 345.415 267.406C338.237 286.957 331.035 306.508 330.935 306.658C331.126 306.603 356.614 306.547 372.949 306.547C380.594 306.547 386.233 306.561 386.338 306.586L386.34 306.593V306.589L386.338 306.586C386.052 305.851 359.828 229.105 359.746 228.16ZM404.732 193.246L396.751 193.255L320.217 193.326L312.231 193.334L309.625 200.856L253.854 361.77L248.775 376.424L264.34 376.584L309.904 377.06L318.362 377.148L320.772 369.074L325.631 352.788L391.32 353.312L396.518 369.859L398.993 377.734L407.274 377.697L453.301 377.489L468.995 377.415L463.84 362.65L407.353 200.77L404.732 193.246ZM347.079 295.39C349.203 289.623 352.064 281.83 355.949 271.247L359.304 262.107L362.345 271.038C363.251 273.7 367.231 285.382 370.645 295.378C360.494 295.378 352.854 295.379 347.079 295.39ZM415.798 11.211V51.1503H335.493V173.302H287.615V51.054L193.879 51.3179C182.579 51.3179 181.065 60.2833 181.065 63.7186C181.065 67.9374 183.827 72.1534 198.996 91.2851C208.838 103.712 217.881 116.115 219.073 118.824C225.578 133.739 217.166 156.975 201.843 166.416C190.921 173.137 192.787 173.303 111.684 173.303H11.2158V128.433H148.469L152.521 125.626C155.255 123.728 156.839 121.117 157.442 117.54C158.283 112.401 157.848 111.731 140.899 92.7123C120.864 70.2276 118.747 66.1234 119.785 51.769C120.963 35.3883 135.627 11.5909 161.255 11.5909L415.798 11.211ZM427.014 0.0224609L415.78 0.0406152L161.237 0.417664C146.575 0.417664 132.958 6.72975 122.904 18.1851C114.753 27.473 109.403 39.7327 108.596 50.9716C107.232 69.8394 111.592 76.6584 132.508 100.13C138.578 106.941 144.35 113.419 146.277 116.169C146.256 116.245 146.231 116.319 146.201 116.391C146.18 116.409 146.148 116.432 146.103 116.464L144.95 117.261H0V184.475H111.684C151.671 184.475 171.408 184.439 183.036 183.587C196.341 182.618 200.586 180.344 206.946 176.409L207.739 175.917C227.734 163.6 238.039 134.265 229.36 114.37C226.683 108.284 209.729 86.7954 207.804 84.3656C202.482 77.6513 193.697 66.5744 192.306 63.3681C192.34 63.1 192.406 62.8193 192.476 62.6266C192.707 62.5679 193.15 62.4883 193.879 62.4883L276.4 62.2551V184.472H346.709V62.3208H427.014V0.0224609ZM546.266 12.5084L602.597 174.807L556.655 174.556L549.196 150.243L467.266 149.88L459.946 173.3H413.164L468.877 12.5084H546.266ZM480.638 115.319L536.44 115.249C536.632 115.249 509.322 35.3701 509.14 35.3143C508.941 35.3073 480.01 115.319 480.638 115.319ZM554.257 1.33655H460.887L458.281 8.86496L402.565 169.658L397.431 184.474H468.21L470.663 176.621L475.515 161.091L540.894 161.38L545.939 177.821L548.354 185.681L556.607 185.728L602.551 185.98L618.389 186.067L613.215 171.158L556.883 8.85658L554.257 1.33655ZM496.22 104.129C500.393 92.3323 504.606 80.5496 508.857 68.7809C512.886 80.5478 516.9 92.3201 520.897 104.098L496.22 104.129ZM704.476 12.5084C740.818 12.5084 766.037 13.0251 770.889 13.863C782.105 15.8069 792.24 21.767 799.837 30.9307C807.786 40.5078 809.61 45.091 810.648 58.2165C812.135 76.7492 803.287 92.7389 785.831 103.112C780.744 106.142 775.517 109.089 774.211 109.675C772.206 110.582 772.475 111.45 776.061 115.64C778.371 118.336 782.384 122.177 784.964 124.171L789.673 127.816L876.707 129.058L877.561 173.3H824.199C782.928 173.3 769.723 172.922 765.848 171.626C760.059 169.671 746.127 157.913 717.802 131.072L697.585 111.911L697.799 173.3H645.862V12.5084H704.476ZM696.826 84.8041H724.402C751.238 84.8041 752.077 84.7189 755.906 81.8589C762.749 76.7478 765.172 71.4817 764.444 63.3961C763.705 55.0577 760.477 50.7174 752.387 47.2262C747.831 45.2418 743.441 44.922 721.935 44.922H696.826V84.8041ZM704.476 1.33655H634.659V184.472H709.062L709.024 173.263L708.898 138.048L710.078 139.165C745.105 172.36 755.439 179.904 762.256 182.204C767.488 183.964 776.25 184.472 824.206 184.472H889L888.781 173.087L887.928 128.845L887.723 118.046L876.88 117.891L793.6 116.702L791.856 115.351C791.301 114.918 790.626 114.348 789.908 113.703L791.601 112.702C812.633 100.199 823.657 80.0141 821.838 57.327C820.629 42.0229 817.885 35.1285 808.49 23.8115C799.26 12.6829 786.59 5.2411 772.814 2.85731C765.155 1.53485 726.713 1.33655 704.476 1.33655ZM708.041 56.0925H721.935C741.598 56.0925 745.495 56.4178 747.897 57.4624C752.453 59.4273 752.916 60.3825 753.272 64.3834C753.631 68.3619 753.137 69.9609 749.175 72.9172L748.863 73.1491C746.248 73.6322 736.546 73.6322 724.402 73.6322H708.041V56.0925Z" fill="#FFC500"/>
</g>
<defs>
<clipPath id="clip0_1948_62613">
<rect width="889" height="379" fill="white"/>
</clipPath>
</defs>
</svg>
